<svg xmlns="http://www.w3.org/2000/svg" viewBox="0 0 400 400" preserveAspectRatio="xMidYMid meet" role="img" aria-label="Okavango primary mark">
  <defs>
    <clipPath id="okvCircle"><circle cx="200" cy="200" r="150"/></clipPath>
  </defs>
  <circle cx="200" cy="200" r="150" fill="none" stroke="#1a3a4a" stroke-width="3.5"/>
  <g clip-path="url(#okvCircle)">
    <path d="M 50 264 Q 95 260, 130 263 T 200 262 Q 245 263, 280 261 T 350 263 L 350 268 L 50 268 Z" fill="#1a3a4a"/>
    <line x1="50" y1="277" x2="350" y2="277" stroke="#1a3a4a" stroke-width="1.6"/>
    <line x1="50" y1="289" x2="350" y2="289" stroke="#1a3a4a" stroke-width="2.0"/>
    <line x1="50" y1="300" x2="350" y2="300" stroke="#1a3a4a" stroke-width="2.4"/>
    <line x1="50" y1="310" x2="350" y2="310" stroke="#1a3a4a" stroke-width="2.9"/>
    <line x1="50" y1="319" x2="350" y2="319" stroke="#1a3a4a" stroke-width="3.4"/>
    <line x1="50" y1="327" x2="350" y2="327" stroke="#1a3a4a" stroke-width="3.9"/>
    <line x1="50" y1="334" x2="350" y2="334" stroke="#1a3a4a" stroke-width="4.4"/>
    <line x1="50" y1="341" x2="350" y2="341" stroke="#1a3a4a" stroke-width="5.0"/>
    <path d="M 65 320 C 152 295, 230 215, 290 88" fill="none" stroke="#1a3a4a" stroke-width="8" stroke-linecap="round" stroke-linejoin="round"/>
  </g>
</svg>
